Normalized EMG Linear Envelopes
nRows=283
nColumns=4

endheader
time	 med_gas_r	  soleus_r	 tib_ant_r	
2.82744	  0.040999	  0.066955	  0.034688	
2.8607	  0.041019	  0.069338	  0.034129	
2.89397	  0.041031	  0.071469	  0.033628	
2.92723	  0.041026	  0.073189	  0.033262	
2.9605	  0.041047	  0.074480	  0.032997	
2.99376	  0.041145	  0.075376	  0.032714	
3.02702	  0.041327	  0.075850	  0.032300	
3.06029	  0.041524	  0.075806	  0.031729	
3.09355	  0.041649	  0.075214	  0.031102	
3.12682	  0.041660	  0.074247	  0.030599	
3.16008	  0.041590	  0.073277	  0.030390	
3.19334	  0.041493	  0.072711	  0.030542	
3.22661	  0.041386	  0.072775	  0.030992	
3.25987	  0.041250	  0.073399	  0.031593	
3.29314	  0.041088	  0.074264	  0.032177	
3.3264	  0.040965	  0.074950	  0.032608	
3.35966	  0.040981	  0.075135	  0.032792	
3.39293	  0.041196	  0.074728	  0.032683	
3.42619	  0.041600	  0.073897	  0.032293	
3.45946	  0.042142	  0.072955	  0.031707	
3.49272	  0.042768	  0.072171	  0.031051	
3.52598	  0.043425	  0.071639	  0.030447	
3.55925	  0.044052	  0.071298	  0.029982	
3.59251	  0.044594	  0.071063	  0.029724	
3.62578	  0.045031	  0.070914	  0.029745	
3.65904	  0.045384	  0.070874	  0.030102	
3.6923	  0.045669	  0.070906	  0.030772	
3.72557	  0.045845	  0.070859	  0.031609	
3.75883	  0.045844	  0.070530	  0.032407	
3.7921	  0.045633	  0.069785	  0.033023	
3.82536	  0.045265	  0.068659	  0.033447	
3.85862	  0.044855	  0.067372	  0.033749	
3.89189	  0.044520	  0.066259	  0.033946	
3.92515	  0.044326	  0.065645	  0.033952	
3.95842	  0.044278	  0.065705	  0.033656	
3.99168	  0.044327	  0.066370	  0.033047	
4.02494	  0.044387	  0.067338	  0.032243	
4.05821	  0.044369	  0.068230	  0.031397	
4.09147	  0.044220	  0.068807	  0.030598	
4.12474	  0.043946	  0.069103	  0.029878	
4.158	  0.043602	  0.069378	  0.029283	
4.19126	  0.043241	  0.069910	  0.028893	
4.22453	  0.042880	  0.070781	  0.028761	
4.25779	  0.042493	  0.071825	  0.028845	
4.29106	  0.042044	  0.072755	  0.029032	
4.32432	  0.041540	  0.073338	  0.029216	
4.35758	  0.041040	  0.073494	  0.029344	
4.39085	  0.040631	  0.073250	  0.029392	
4.42411	  0.040357	  0.072662	  0.029317	
4.45738	  0.040187	  0.071795	  0.029061	
4.49064	  0.040042	  0.070761	  0.028613	
4.5239	  0.039869	  0.069743	  0.028065	
4.55717	  0.039694	  0.068960	  0.027591	
4.59043	  0.039627	  0.068617	  0.027386	
4.6237	  0.039823	  0.068847	  0.027633	
4.65696	  0.040461	  0.069689	  0.028580	
4.69022	  0.041725	  0.071096	  0.030683	
4.72349	  0.043783	  0.073016	  0.034741	
4.75675	  0.046722	  0.075513	  0.041876	
4.79002	  0.050473	  0.078815	  0.053289	
4.82328	  0.054841	  0.083184	  0.069837	
4.85654	  0.059642	  0.088672	  0.091695	
4.88981	  0.064870	  0.095038	  0.118513	
4.92307	  0.070678	  0.101965	  0.150225	
4.95634	  0.077146	  0.109438	  0.188028	
4.9896	  0.084040	  0.117845	  0.234460	
5.02286	  0.090802	  0.127572	  0.291885	
5.05613	  0.096835	  0.138383	  0.359942	
5.08939	  0.101818	  0.149146	  0.433729	
5.12266	  0.105796	  0.158227	  0.504306	
5.15592	  0.109034	  0.164267	  0.561470	
5.18918	  0.111870	  0.166759	  0.597136	
5.22245	  0.114695	  0.166052	  0.607512	
5.25571	  0.117923	  0.162931	  0.593451	
5.28898	  0.121756	  0.158172	  0.559538	
5.32224	  0.125899	  0.152399	  0.512612	
5.3555	  0.129574	  0.146217	  0.460180	
5.38877	  0.132041	  0.140360	  0.409119	
5.42203	  0.133266	  0.135645	  0.365025	
5.4553	  0.134176	  0.132717	  0.332012	
5.48856	  0.136216	  0.131776	  0.312372	
5.52182	  0.140425	  0.132501	  0.305880	
5.55509	  0.146739	  0.134210	  0.309498	
5.58835	  0.154107	  0.136155	  0.318306	
5.62162	  0.161460	  0.137700	  0.327428	
5.65488	  0.168729	  0.138304	  0.333650	
5.68814	  0.177024	  0.137490	  0.335807	
5.72141	  0.187738	  0.135015	  0.334181	
5.75467	  0.201338	  0.131199	  0.329690	
5.78794	  0.216874	  0.127059	  0.323278	
5.8212	  0.232640	  0.123949	  0.315480	
5.85446	  0.247418	  0.122911	  0.306321	
5.88773	  0.261201	  0.124187	  0.295677	
5.92099	  0.274823	  0.127172	  0.283954	
5.95426	  0.288931	  0.130734	  0.272505	
5.98752	  0.303284	  0.133643	  0.263375	
6.02078	  0.316829	  0.134992	  0.258518	
6.05405	  0.328136	  0.134496	  0.259065	
6.08731	  0.335608	  0.132564	  0.265116	
6.12058	  0.337635	  0.130059	  0.275984	
6.15384	  0.333170	  0.127861	  0.290430	
6.1871	  0.322610	  0.126513	  0.306659	
6.22037	  0.308024	  0.126128	  0.322397	
6.25363	  0.292183	  0.126500	  0.335435	
6.2869	  0.277111	  0.127291	  0.344485	
6.32016	  0.263551	  0.128167	  0.349596	
6.35342	  0.251842	  0.128908	  0.351629	
6.38669	  0.243107	  0.129510	  0.351214	
6.41995	  0.239230	  0.130241	  0.348158	
6.45322	  0.241416	  0.131538	  0.341868	
6.48648	  0.248801	  0.133731	  0.332310	
6.51974	  0.258656	  0.136729	  0.320578	
6.55301	  0.268047	  0.139942	  0.308613	
6.58627	  0.275326	  0.142552	  0.298431	
6.61954	  0.280181	  0.144011	  0.291459	
6.6528	  0.282683	  0.144392	  0.288250	
6.68606	  0.282664	  0.144323	  0.288513	
6.71933	  0.280053	  0.144520	  0.291383	
6.75259	  0.275542	  0.145282	  0.295813	
6.78586	  0.270728	  0.146287	  0.300895	
6.81912	  0.267538	  0.146813	  0.305960	
6.85238	  0.267477	  0.146226	  0.310594	
6.88565	  0.271206	  0.144430	  0.314735	
6.91891	  0.278583	  0.141965	  0.318803	
6.95218	  0.288984	  0.139693	  0.323588	
6.98544	  0.301661	  0.138300	  0.329838	
7.0187	  0.315842	  0.137994	  0.337794	
7.05197	  0.330506	  0.138548	  0.347004	
7.08523	  0.344130	  0.139580	  0.356462	
7.1185	  0.354896	  0.140768	  0.364893	
7.15176	  0.361393	  0.141891	  0.371036	
7.18502	  0.363315	  0.142768	  0.373876	
7.21829	  0.361594	  0.143248	  0.372913	
7.25155	  0.357900	  0.143258	  0.368377	
7.28482	  0.353850	  0.142819	  0.361264	
7.31808	  0.350329	  0.141975	  0.353089	
7.35134	  0.347204	  0.140730	  0.345463	
7.38461	  0.343658	  0.139102	  0.339712	
7.41787	  0.339030	  0.137262	  0.336624	
7.45114	  0.333552	  0.135615	  0.336312	
7.4844	  0.328210	  0.134662	  0.338165	
7.51766	  0.323759	  0.134717	  0.340991	
7.55093	  0.319864	  0.135692	  0.343419	
7.58419	  0.315367	  0.137136	  0.344453	
7.61746	  0.309513	  0.138513	  0.343863	
7.65072	  0.302937	  0.139460	  0.342139	
7.68398	  0.297459	  0.139880	  0.340019	
7.71725	  0.294835	  0.139839	  0.337890	
7.75051	  0.295573	  0.139464	  0.335477	
7.78378	  0.298654	  0.138945	  0.332070	
7.81704	  0.302219	  0.138590	  0.327222	
7.8503	  0.304632	  0.138809	  0.321418	
7.88357	  0.305354	  0.139958	  0.316214	
7.91683	  0.305183	  0.142142	  0.313701	
7.9501	  0.305740	  0.145111	  0.315715	
7.98336	  0.308480	  0.148330	  0.323349	
8.01662	  0.313808	  0.151170	  0.336985	
8.04989	  0.320814	  0.153174	  0.356559	
8.08315	  0.327724	  0.154270	  0.381606	
8.11642	  0.332724	  0.154823	  0.410967	
8.14968	  0.334709	  0.155460	  0.442444	
8.18294	  0.333620	  0.156718	  0.472917	
8.21621	  0.330248	  0.158729	  0.499032	
8.24947	  0.325724	  0.161118	  0.518088	
8.28274	  0.321071	  0.163207	  0.528610	
8.316	  0.317033	  0.164394	  0.530472	
8.34926	  0.314044	  0.164462	  0.524808	
8.38253	  0.312119	  0.163650	  0.513782	
8.41579	  0.310745	  0.162481	  0.500179	
8.44906	  0.309069	  0.161493	  0.486775	
8.48232	  0.306461	  0.161022	  0.475719	
8.51558	  0.303033	  0.161121	  0.468191	
8.54885	  0.299585	  0.161630	  0.464506	
8.58211	  0.296966	  0.162330	  0.464505	
8.61538	  0.295491	  0.163076	  0.467854	
8.64864	  0.294958	  0.163831	  0.474048	
8.6819	  0.295162	  0.164669	  0.482216	
8.71517	  0.296219	  0.165807	  0.491097	
8.74843	  0.298294	  0.167632	  0.499333	
8.7817	  0.301030	  0.170553	  0.505917	
8.81496	  0.303370	  0.174680	  0.510468	
8.84822	  0.304043	  0.179556	  0.513172	
8.88149	  0.302278	  0.184196	  0.514520	
8.91475	  0.298132	  0.187473	  0.515076	
8.94802	  0.292366	  0.188600	  0.515388	
8.98128	  0.286167	  0.187434	  0.515917	
9.01454	  0.280898	  0.184465	  0.516830	
9.04781	  0.277831	  0.180526	  0.517725	
9.08107	  0.277863	  0.176419	  0.517578	
9.11434	  0.281459	  0.172660	  0.515187	
9.1476	  0.288809	  0.169460	  0.509983	
9.18086	  0.299834	  0.166905	  0.502634	
9.21413	  0.313779	  0.165128	  0.494867	
9.24739	  0.328752	  0.164322	  0.488542	
9.28066	  0.341947	  0.164577	  0.484695	
9.31392	  0.350800	  0.165677	  0.483305	
9.34718	  0.354336	  0.167044	  0.483899	
9.38045	  0.353607	  0.167960	  0.486264	
9.41371	  0.350765	  0.167993	  0.490545	
9.44698	  0.347484	  0.167310	  0.496691	
9.48024	  0.343989	  0.166599	  0.503949	
9.5135	  0.339452	  0.166612	  0.511019	
9.54677	  0.333305	  0.167685	  0.516706	
9.58003	  0.326307	  0.169609	  0.520406	
9.6133	  0.320321	  0.171912	  0.522138	
9.64656	  0.316899	  0.174299	  0.522426	
9.67982	  0.315958	  0.176903	  0.522312	
9.71309	  0.315915	  0.180203	  0.523161	
9.74635	  0.315205	  0.184671	  0.525945	
9.77962	  0.313593	  0.190364	  0.530462	
9.81288	  0.311893	  0.196724	  0.535365	
9.84614	  0.310597	  0.202794	  0.539182	
9.87941	  0.309291	  0.207780	  0.541423	
9.91267	  0.307611	  0.211578	  0.542856	
9.94594	  0.306394	  0.214837	  0.545016	
9.9792	  0.307332	  0.218524	  0.549631	
10.0125	  0.311431	  0.223376	  0.558328	
10.0457	  0.318084	  0.229608	  0.572380	
10.079	  0.325685	  0.236873	  0.592297	
10.1123	  0.332813	  0.244252	  0.617377	
10.1455	  0.338630	  0.250279	  0.645366	
10.1788	  0.342485	  0.253252	  0.672300	
10.212	  0.343785	  0.251905	  0.692770	
10.2453	  0.342593	  0.246096	  0.700973	
10.2786	  0.340165	  0.236935	  0.692547	
10.3118	  0.338382	  0.226155	  0.666343	
10.3451	  0.338181	  0.215116	  0.624970	
10.3784	  0.338392	  0.204151	  0.573712	
10.4116	  0.336330	  0.192743	  0.518620	
10.4449	  0.329864	  0.180355	  0.464991	
10.4782	  0.319087	  0.167200	  0.416695	
10.5114	  0.306028	  0.154291	  0.375956	
10.5447	  0.292811	  0.142779	  0.343202	
10.578	  0.280182	  0.133222	  0.317192	
10.6112	  0.267755	  0.125423	  0.295821	
10.6445	  0.255302	  0.118877	  0.277433	
10.6777	  0.243412	  0.113324	  0.261729	
10.711	  0.232901	  0.108902	  0.249501	
10.7443	  0.223944	  0.105832	  0.241332	
10.7775	  0.216168	  0.104023	  0.236362	
10.8108	  0.209640	  0.102972	  0.232221	
10.8441	  0.205547	  0.102043	  0.226230	
10.8773	  0.205700	  0.100868	  0.216847	
10.9106	  0.211285	  0.099506	  0.204170	
10.9439	  0.222088	  0.098284	  0.189302	
10.9771	  0.236892	  0.097472	  0.173403	
11.0104	  0.254493	  0.097075	  0.157317	
11.0436	  0.274154	  0.096844	  0.141803	
11.0769	  0.295034	  0.096441	  0.127759	
11.1102	  0.315378	  0.095620	  0.116004	
11.1434	  0.332649	  0.094319	  0.106801	
11.1767	  0.344818	  0.092649	  0.099623	
11.21	  0.351661	  0.090839	  0.093448	
11.2432	  0.354751	  0.089167	  0.087346	
11.2765	  0.356028	  0.087890	  0.080949	
11.3098	  0.356237	  0.087199	  0.074500	
11.343	  0.354559	  0.087192	  0.068557	
11.3763	  0.349566	  0.087872	  0.063603	
11.4096	  0.340481	  0.089156	  0.059800	
11.4428	  0.327750	  0.090850	  0.057009	
11.4761	  0.312789	  0.092647	  0.055001	
11.5093	  0.297424	  0.094170	  0.053649	
11.5426	  0.283350	  0.095081	  0.052939	
11.5759	  0.271708	  0.095193	  0.052816	
11.6091	  0.262845	  0.094488	  0.053031	
11.6424	  0.256441	  0.093061	  0.053208	
11.6757	  0.252048	  0.091040	  0.053081	
11.7089	  0.249687	  0.088567	  0.052661	
11.7422	  0.250003	  0.085842	  0.052128	
11.7755	  0.253698	  0.083162	  0.051569	
11.8087	  0.260573	  0.080892	  0.050850	
11.842	  0.269035	  0.079363	  0.049779	
11.8752	  0.276600	  0.078732	  0.048360	
11.9085	  0.281090	  0.078884	  0.046841	
11.9418	  0.281573	  0.079473	  0.045476	
11.975	  0.278368	  0.080094	  0.044275	
12.0083	  0.272360	  0.080477	  0.043020	
12.0416	  0.264358	  0.080526	  0.041547	
12.0748	  0.254912	  0.080194	  0.039977	
12.1081	  0.244438	  0.079357	  0.038670	
12.1414	  0.233343	  0.077862	  0.037948	
12.1746	  0.222081	  0.075703	  0.037889	
12.2079	  0.211212	  0.073138	  0.038319	
